<svg width="442" height="278" viewBox="0 0 442 278" fill="none" xmlns="http://www.w3.org/2000/svg">
<path d="M0.0640001 278L98.878 14.879H181.223L280.037 278H206.884L191.181 232.423H86.239L70.536 278H0.0640001ZM102.708 181.101H174.329L155.562 125.566C154.541 122.757 153.264 119.31 151.732 115.225C150.455 110.884 149.051 106.416 147.519 101.82C146.242 96.9687 144.966 92.1173 143.689 87.266C142.412 82.4147 141.136 78.2017 139.859 74.627H137.178C136.157 79.4783 134.625 84.968 132.582 91.096C130.795 97.224 128.88 103.352 126.837 109.48C125.05 115.608 123.39 120.97 121.858 125.566L102.708 181.101ZM287.5 278V0.707986H350.312V278H287.5ZM378.837 278V0.707986H441.649V278H378.837Z" fill="url(#paint0_linear_1_84)"/>
<defs>
<linearGradient id="paint0_linear_1_84" x1="231.5" y1="15" x2="231.5" y2="278" gradientUnits="userSpaceOnUse">
<stop stop-color="white"/>
<stop offset="1" stop-color="#999999" stop-opacity="0"/>
</linearGradient>
</defs>
</svg>
