<svg width="646" height="137" viewBox="0 0 646 137" fill="none" xmlns="http://www.w3.org/2000/svg">
<path d="M0 55.4107C0 27.309 21.8695 5.32617 50.0845 5.32617C78.073 5.32617 99.8291 27.1957 99.8291 55.4107C99.8291 83.9657 78.073 105.949 50.0845 105.949C21.7562 105.949 0 83.9657 0 55.4107ZM84.6451 55.4107C84.6451 35.2409 69.4611 19.377 50.0845 19.377C30.7079 19.377 15.2973 35.2409 15.2973 55.4107C15.2973 75.9204 30.7079 91.7843 50.0845 91.7843C69.2345 91.7843 84.6451 75.9204 84.6451 55.4107Z" fill="url(#paint0_linear_1_910)"/>
<path d="M0.5 55.4107C0.5 27.5844 22.1464 5.82617 50.0845 5.82617C77.7938 5.82617 99.3291 27.4688 99.3291 55.4107C99.3291 83.6963 77.7902 105.449 50.0845 105.449C22.0368 105.449 0.5 83.694 0.5 55.4107ZM85.1451 55.4107C85.1451 34.985 69.757 18.877 50.0845 18.877C30.4162 18.877 14.7973 34.9806 14.7973 55.4107C14.7973 76.1776 30.4132 92.2843 50.0845 92.2843C69.5313 92.2843 85.1451 76.1755 85.1451 55.4107Z" stroke="white" stroke-opacity="0.05"/>
<path d="M230.14 66.7416V104.135H215.749V69.0079C215.749 56.0901 209.404 44.7588 196.033 44.7588C183.115 44.7588 176.543 55.6369 176.543 68.6679V104.022H162.152V68.6679C162.152 55.6369 155.58 44.7588 142.435 44.7588C129.064 44.7588 123.172 56.0901 123.172 69.0079V104.135H108.781V66.8549C108.781 47.025 120.113 31.0479 141.416 31.0479C155.58 31.0479 165.891 38.2999 169.517 49.2913C173.483 38.2999 183.455 31.0479 196.939 31.0479C218.469 31.0479 230.14 47.025 230.14 66.7416Z" fill="url(#paint1_linear_1_910)"/>
<path d="M229.64 66.7416V103.635H216.249V69.0079C216.249 62.4755 214.646 56.3001 211.308 51.7437C207.958 47.1693 202.88 44.2588 196.033 44.2588C189.415 44.2588 184.395 47.0537 181.043 51.5269C177.704 55.984 176.043 62.0758 176.043 68.6679V103.522H162.652V68.6679C162.652 62.0759 160.99 55.9831 157.622 51.5252C154.241 47.0512 149.163 44.2588 142.435 44.2588C135.586 44.2588 130.619 47.1714 127.381 51.7505C124.159 56.3084 122.672 62.4826 122.672 69.0079V103.635H109.281V66.8549C109.281 57.0307 112.088 48.2023 117.491 41.8388C122.885 35.4856 130.9 31.5479 141.416 31.5479C155.398 31.5479 165.494 38.6919 169.042 49.448L169.496 50.8231L169.988 49.461C173.878 38.6783 183.654 31.5479 196.939 31.5479C207.57 31.5479 215.729 35.4875 221.236 41.8289C226.75 48.1792 229.64 56.9783 229.64 66.7416Z" stroke="white" stroke-opacity="0.05"/>
<path d="M257.787 69.801V104.135H243.396V68.3279C243.396 47.5916 255.748 31.2744 278.637 31.2744C301.866 31.2744 314.444 47.4782 314.444 68.1013V104.135H300.053V69.9143C300.053 56.5433 292.801 45.0987 278.637 45.0987C264.813 45.0987 257.787 56.5433 257.787 69.801Z" fill="url(#paint2_linear_1_910)"/>
<path d="M257.287 69.801V103.635H243.896V68.3279C243.896 58.0559 246.955 48.9195 252.806 42.3578C258.651 35.8039 267.319 31.7744 278.637 31.7744C290.128 31.7744 298.94 35.7782 304.882 42.2912C310.83 48.8107 313.944 57.889 313.944 68.1013V103.635H300.553V69.9143C300.553 63.1448 298.718 56.8231 295.049 52.1823C291.369 47.5277 285.869 44.5987 278.637 44.5987C271.57 44.5987 266.211 47.5318 262.632 52.1729C259.064 56.7992 257.287 63.0907 257.287 69.801Z" stroke="white" stroke-opacity="0.05"/>
<path d="M328.496 9.51833C328.496 4.30591 332.689 0 337.901 0C343.114 0 347.193 4.30591 347.193 9.51833C347.193 14.7308 343.114 18.9234 337.901 18.9234C332.689 18.9234 328.496 14.7308 328.496 9.51833ZM345.153 33.0875V104.135H330.762V33.0875H345.153Z" fill="url(#paint3_linear_1_910)"/>
<path d="M328.996 9.51833C328.996 4.57423 332.973 0.5 337.901 0.5C342.822 0.5 346.693 4.56621 346.693 9.51833C346.693 14.4626 342.829 18.4234 337.901 18.4234C332.965 18.4234 328.996 14.4546 328.996 9.51833ZM344.653 33.5875V103.635H331.262V33.5875H344.653Z" stroke="white" stroke-opacity="0.05"/>
<path d="M356.711 68.7811C356.711 47.1383 372.348 31.3877 393.878 31.3877C403.396 31.3877 412.121 35.5803 418.013 41.9258L418.127 0.453125H432.518V68.7811C432.518 89.8574 416.087 105.948 394.671 105.948C373.028 105.948 356.711 89.1776 356.711 68.7811ZM418.127 68.6678C418.127 55.7501 407.928 44.9853 394.671 44.9853C381.413 44.9853 371.215 55.7501 371.215 68.6678C371.215 81.6989 381.526 92.4636 394.671 92.4636C407.928 92.3503 418.127 81.6989 418.127 68.6678Z" fill="url(#paint4_linear_1_910)"/>
<path d="M417.647 42.2661L418.51 43.1954L418.513 41.9272L418.625 0.953125H432.018V68.7811C432.018 89.5724 415.82 105.448 394.671 105.448C373.301 105.448 357.211 88.8985 357.211 68.7811C357.211 47.4114 372.627 31.8877 393.878 31.8877C403.25 31.8877 411.844 36.0169 417.647 42.2661ZM394.671 92.9637L394.675 92.9636C408.214 92.8479 418.627 81.9664 418.627 68.6678C418.627 55.485 408.216 44.4853 394.671 44.4853C381.126 44.4853 370.715 55.485 370.715 68.6678C370.715 81.964 381.239 92.9636 394.671 92.9637Z" stroke="white" stroke-opacity="0.05"/>
<path d="M445.775 104.135V61.7556C445.775 44.532 455.634 31.6143 474.217 31.6143C478.75 31.6143 483.395 32.5208 487.021 34.2205V48.3847C483.509 46.345 479.429 45.3252 475.577 45.3252C465.945 45.3252 460.166 51.8974 460.166 62.3222V104.135H445.775Z" fill="url(#paint5_linear_1_910)"/>
<path d="M446.275 103.635V61.7556C446.275 53.2356 448.713 45.8286 453.401 40.5584C458.082 35.2963 465.049 32.1143 474.217 32.1143C478.571 32.1143 483.016 32.9629 486.521 34.541V47.5357C483.106 45.7276 479.242 44.8252 475.577 44.8252C470.641 44.8252 466.645 46.513 463.888 49.5801C461.136 52.6406 459.666 57.0205 459.666 62.3222V103.635H446.275Z" stroke="white" stroke-opacity="0.05"/>
<path d="M485.889 68.4412C485.889 47.9315 502.546 31.2744 523.849 31.2744C545.378 31.2744 561.582 48.1581 561.582 68.4412C561.582 89.0643 545.152 105.835 523.849 105.835C502.432 105.948 485.889 89.0643 485.889 68.4412ZM547.191 68.6679C547.191 55.6368 536.993 44.872 523.849 44.872C510.478 44.872 500.166 55.6368 500.166 68.6679C500.166 81.5856 510.478 92.3504 523.849 92.3504C537.106 92.2371 547.191 81.4723 547.191 68.6679Z" fill="url(#paint6_linear_1_910)"/>
<path d="M523.849 92.8504L523.853 92.8504C537.395 92.7346 547.691 81.7366 547.691 68.6679C547.691 55.3749 537.283 44.372 523.849 44.372C510.194 44.372 499.666 55.3685 499.666 68.6679C499.666 81.8555 510.195 92.8504 523.849 92.8504ZM523.849 105.335L523.846 105.335C502.707 105.447 486.389 88.7876 486.389 68.4412C486.389 48.2145 502.815 31.7744 523.849 31.7744C545.101 31.7744 561.082 48.4333 561.082 68.4412C561.082 88.7881 544.875 105.335 523.849 105.335Z" stroke="white" stroke-opacity="0.05"/>
<path d="M570.42 136.769V68.4412C570.42 47.2516 586.85 31.2744 608.267 31.2744C629.683 31.2744 646 48.1581 646 68.4412C646 89.9708 630.476 105.835 608.833 105.835C599.201 105.835 590.59 101.642 584.697 95.2965V136.769H570.42ZM631.609 68.6679C631.609 55.6368 621.411 44.9853 608.267 44.9853C594.896 44.9853 584.811 55.5235 584.811 68.6679C584.811 81.5856 595.009 92.4637 608.267 92.4637C621.524 92.3504 631.609 81.4723 631.609 68.6679Z" fill="url(#paint7_linear_1_910)"/>
<path d="M584.197 95.2965V136.269H570.92V68.4412C570.92 47.5376 587.116 31.7744 608.267 31.7744C629.407 31.7744 645.5 48.4343 645.5 68.4412C645.5 89.6997 630.195 105.335 608.833 105.335C599.349 105.335 590.867 101.206 585.064 94.9563L584.197 94.0232V95.2965ZM608.267 92.9637L608.271 92.9637C621.816 92.8479 632.109 81.7335 632.109 68.6679C632.109 55.3717 621.698 44.4853 608.267 44.4853C594.61 44.4853 584.311 55.2569 584.311 68.6679C584.311 81.8476 594.719 92.9637 608.267 92.9637Z" stroke="white" stroke-opacity="0.05"/>
<defs>
<linearGradient id="paint0_linear_1_910" x1="49.9146" y1="5.32617" x2="49.9146" y2="105.949" gradientUnits="userSpaceOnUse">
<stop stop-color="#222222"/>
<stop offset="1" stop-color="#222222" stop-opacity="0.31"/>
</linearGradient>
<linearGradient id="paint1_linear_1_910" x1="169.461" y1="31.0479" x2="169.461" y2="104.135" gradientUnits="userSpaceOnUse">
<stop stop-color="#222222"/>
<stop offset="1" stop-color="#222222" stop-opacity="0.31"/>
</linearGradient>
<linearGradient id="paint2_linear_1_910" x1="278.92" y1="31.2744" x2="278.92" y2="104.135" gradientUnits="userSpaceOnUse">
<stop stop-color="#222222"/>
<stop offset="1" stop-color="#222222" stop-opacity="0.31"/>
</linearGradient>
<linearGradient id="paint3_linear_1_910" x1="337.844" y1="0" x2="337.844" y2="104.135" gradientUnits="userSpaceOnUse">
<stop stop-color="#222222"/>
<stop offset="1" stop-color="#222222" stop-opacity="0.31"/>
</linearGradient>
<linearGradient id="paint4_linear_1_910" x1="394.614" y1="0.453125" x2="394.614" y2="105.948" gradientUnits="userSpaceOnUse">
<stop stop-color="#222222"/>
<stop offset="1" stop-color="#222222" stop-opacity="0.31"/>
</linearGradient>
<linearGradient id="paint5_linear_1_910" x1="466.398" y1="31.6143" x2="466.398" y2="104.135" gradientUnits="userSpaceOnUse">
<stop stop-color="#222222"/>
<stop offset="1" stop-color="#222222" stop-opacity="0.31"/>
</linearGradient>
<linearGradient id="paint6_linear_1_910" x1="523.735" y1="31.2744" x2="523.735" y2="105.835" gradientUnits="userSpaceOnUse">
<stop stop-color="#222222"/>
<stop offset="1" stop-color="#222222" stop-opacity="0.31"/>
</linearGradient>
<linearGradient id="paint7_linear_1_910" x1="608.21" y1="31.2744" x2="608.21" y2="136.769" gradientUnits="userSpaceOnUse">
<stop stop-color="#222222"/>
<stop offset="1" stop-color="#222222" stop-opacity="0.31"/>
</linearGradient>
</defs>
</svg>
