<svg width="979" height="273" viewBox="0 0 979 273" fill="none" xmlns="http://www.w3.org/2000/svg">
<path d="M0.725001 268V4.87899H69.282V268H0.725001ZM80.4634 268V66.159H132.168L136.764 94.884H139.445C144.552 87.99 150.425 81.9897 157.063 76.883C163.702 71.7763 171.234 67.9463 179.66 65.393C188.086 62.8397 197.023 61.563 206.47 61.563C221.024 61.563 233.28 64.244 243.238 69.606C253.452 74.968 261.239 83.011 266.601 93.735C271.963 104.459 274.644 118.119 274.644 134.716V268H211.832V143.525C211.832 137.908 211.066 133.184 209.534 129.354C208.258 125.269 206.343 121.822 203.789 119.013C201.236 116.204 198.044 114.162 194.214 112.885C190.384 111.608 186.044 110.97 181.192 110.97C173.788 110.97 167.277 112.757 161.659 116.332C156.042 119.651 151.574 124.247 148.254 130.12C144.935 135.737 143.275 142.376 143.275 150.036V268H80.4634ZM442.607 272.596C413.755 272.596 388.987 267.617 368.305 257.659C347.878 247.446 332.175 232.253 321.196 212.082C310.217 191.911 304.727 166.633 304.727 136.248C304.727 105.863 310.217 80.713 321.196 60.797C332.175 40.6257 347.878 25.561 368.305 15.603C388.987 5.38965 413.755 0.282977 442.607 0.282977C471.46 0.282977 496.099 5.38965 516.526 15.603C537.208 25.561 553.039 40.6257 564.018 60.797C574.998 80.713 580.487 105.863 580.487 136.248C580.487 166.633 574.998 191.911 564.018 212.082C553.039 232.253 537.208 247.446 516.526 257.659C496.099 267.617 471.46 272.596 442.607 272.596ZM442.607 218.976C453.586 218.976 463.289 217.316 471.715 213.997C480.141 210.678 487.163 205.826 492.78 199.443C498.653 193.06 502.994 185.272 505.802 176.08C508.611 166.888 510.015 156.547 510.015 145.057V128.205C510.015 116.46 508.611 105.991 505.802 96.799C502.994 87.607 498.653 79.8193 492.78 73.436C487.163 67.0527 480.141 62.2013 471.715 58.882C463.289 55.5627 453.586 53.903 442.607 53.903C431.373 53.903 421.542 55.5627 413.116 58.882C404.69 62.2013 397.668 67.0527 392.051 73.436C386.434 79.8193 382.221 87.607 379.412 96.799C376.603 105.991 375.199 116.46 375.199 128.205V145.057C375.199 156.547 376.603 166.888 379.412 176.08C382.221 185.272 386.434 193.06 392.051 199.443C397.668 205.826 404.69 210.678 413.116 213.997C421.542 217.316 431.373 218.976 442.607 218.976ZM579.975 268V66.159H631.68L636.276 94.884H638.957C644.064 87.99 649.936 81.9897 656.575 76.883C663.214 71.7763 670.746 67.9463 679.172 65.393C687.598 62.8397 696.535 61.563 705.982 61.563C720.536 61.563 732.792 64.244 742.75 69.606C752.963 74.968 760.751 83.011 766.113 93.735C771.475 104.459 774.156 118.119 774.156 134.716V268H711.344V143.525C711.344 137.908 710.578 133.184 709.046 129.354C707.769 125.269 705.854 121.822 703.301 119.013C700.748 116.204 697.556 114.162 693.726 112.885C689.896 111.608 685.555 110.97 680.704 110.97C673.299 110.97 666.788 112.757 661.171 116.332C655.554 119.651 651.085 124.247 647.766 130.12C644.447 135.737 642.787 142.376 642.787 150.036V268H579.975ZM878.332 272.596C855.352 272.596 835.819 268.894 819.733 261.489C803.647 253.829 791.263 242.211 782.582 226.636C774.156 211.061 769.943 191.145 769.943 166.888C769.943 143.142 774.156 123.481 782.582 107.906C791.008 92.3307 803.136 80.713 818.967 73.053C834.797 65.393 853.82 61.563 876.034 61.563C897.992 61.563 916.504 65.2653 931.569 72.67C946.889 80.0747 958.506 91.437 966.422 106.757C974.337 122.077 978.295 141.865 978.295 166.122V179.527H833.521C833.521 190.251 835.053 199.315 838.117 206.72C841.181 214.125 845.904 219.742 852.288 223.572C858.671 227.402 867.225 229.317 877.949 229.317C884.332 229.317 889.949 228.551 894.801 227.019C899.652 225.487 903.737 223.317 907.057 220.508C910.376 217.444 912.929 213.869 914.717 209.784C916.504 205.699 917.398 201.103 917.398 195.996H978.295C978.295 208.252 975.997 219.231 971.401 228.934C967.06 238.381 960.549 246.424 951.868 253.063C943.186 259.446 932.59 264.298 920.079 267.617C907.823 270.936 893.907 272.596 878.332 272.596ZM833.904 144.674H914.334C914.334 138.035 913.44 132.29 911.653 127.439C910.121 122.332 907.695 118.119 904.376 114.8C901.312 111.481 897.482 109.055 892.886 107.523C888.545 105.736 883.438 104.842 877.566 104.842C868.374 104.842 860.714 106.374 854.586 109.438C848.458 112.502 843.734 116.97 840.415 122.843C837.095 128.716 834.925 135.993 833.904 144.674Z" fill="url(#paint0_linear_1_83)"/>
<defs>
<linearGradient id="paint0_linear_1_83" x1="482.5" y1="5" x2="482.5" y2="268" gradientUnits="userSpaceOnUse">
<stop stop-color="white"/>
<stop offset="1" stop-color="#999999" stop-opacity="0"/>
</linearGradient>
</defs>
</svg>
