<svg width="89" height="20" viewBox="0 0 89 20" fill="none" xmlns="http://www.w3.org/2000/svg">
<path d="M0.336189 8.53984C0.336189 4.58174 3.31797 1.48548 7.16493 1.48548C10.981 1.48548 13.9473 4.56578 13.9473 8.53984C13.9473 12.5618 10.981 15.658 7.16493 15.658C3.30252 15.658 0.336189 12.5618 0.336189 8.53984ZM11.8771 8.53984C11.8771 5.69894 9.80682 3.46453 7.16493 3.46453C4.52304 3.46453 2.42189 5.69894 2.42189 8.53984C2.42189 11.4286 4.52304 13.663 7.16493 13.663C9.77592 13.663 11.8771 11.4286 11.8771 8.53984Z" fill="white"/>
<path d="M31.7148 10.1358V15.4027H29.7527V10.455C29.7527 8.63558 28.8875 7.03957 27.0645 7.03957C25.3032 7.03957 24.4071 8.57174 24.4071 10.4072V15.3867H22.445V10.4072C22.445 8.57174 21.5489 7.03957 19.7568 7.03957C17.9337 7.03957 17.1303 8.63558 17.1303 10.455V15.4027H15.1682V10.1518C15.1682 7.35877 16.7132 5.1084 19.6177 5.1084C21.5489 5.1084 22.9548 6.12984 23.4492 7.67797C23.99 6.12984 25.3495 5.1084 27.1881 5.1084C30.1235 5.1084 31.7148 7.35877 31.7148 10.1358Z" fill="white"/>
<path d="M35.4858 10.5668V15.4027H33.5237V10.3593C33.5237 7.43864 35.2077 5.14038 38.3285 5.14038C41.4957 5.14038 43.2106 7.42267 43.2106 10.3274V15.4027H41.2485V10.5828C41.2485 8.69948 40.2597 7.08751 38.3285 7.08751C36.4437 7.08751 35.4858 8.69948 35.4858 10.5668Z" fill="white"/>
<path d="M45.1252 2.076C45.1252 1.34184 45.6969 0.735352 46.4076 0.735352C47.1182 0.735352 47.6744 1.34184 47.6744 2.076C47.6744 2.81016 47.1182 3.40069 46.4076 3.40069C45.6969 3.40069 45.1252 2.81016 45.1252 2.076ZM47.3963 5.3957V15.4027H45.4342V5.3957H47.3963Z" fill="white"/>
<path d="M48.9709 10.423C48.9709 7.37463 51.1029 5.15618 54.0384 5.15618C55.3361 5.15618 56.5258 5.7467 57.3292 6.64047L57.3446 0.799072H59.3067V10.423C59.3067 13.3916 57.0665 15.6579 54.1465 15.6579C51.1956 15.6579 48.9709 13.2958 48.9709 10.423ZM57.3446 10.4071C57.3446 8.5876 55.9541 7.07139 54.1465 7.07139C52.3389 7.07139 50.9484 8.5876 50.9484 10.4071C50.9484 12.2425 52.3544 13.7587 54.1465 13.7587C55.9541 13.7427 57.3446 12.2425 57.3446 10.4071Z" fill="white"/>
<path d="M61.1155 15.4027V9.43362C61.1155 7.00768 62.4596 5.18823 64.9933 5.18823C65.6113 5.18823 66.2448 5.31591 66.7391 5.55532V7.55033C66.2602 7.26305 65.704 7.1194 65.1787 7.1194C63.8655 7.1194 63.0776 8.04509 63.0776 9.51342V15.4027H61.1155Z" fill="white"/>
<path d="M66.5842 10.3753C66.5842 7.48652 68.8553 5.14038 71.7599 5.14038C74.6953 5.14038 76.9046 7.51844 76.9046 10.3753C76.9046 13.28 74.6644 15.6421 71.7599 15.6421C68.8399 15.6581 66.5842 13.28 66.5842 10.3753ZM74.9425 10.4072C74.9425 8.5718 73.552 7.05559 71.7599 7.05559C69.9368 7.05559 68.5309 8.5718 68.5309 10.4072C68.5309 12.2267 69.9368 13.7429 71.7599 13.7429C73.5675 13.7269 74.9425 12.2107 74.9425 10.4072Z" fill="white"/>
<path d="M78.1096 19.9992V10.3753C78.1096 7.39076 80.3498 5.14038 83.2698 5.14038C86.1898 5.14038 88.4145 7.51844 88.4145 10.3753C88.4145 13.4077 86.2979 15.6421 83.347 15.6421C82.0338 15.6421 80.8597 15.0516 80.0563 14.1578V19.9992H78.1096ZM86.4524 10.4072C86.4524 8.5718 85.062 7.07155 83.2698 7.07155C81.4467 7.07155 80.0717 8.55584 80.0717 10.4072C80.0717 12.2267 81.4622 13.7588 83.2698 13.7588C85.0774 13.7429 86.4524 12.2107 86.4524 10.4072Z" fill="white"/>
</svg>
