<svg width="420" height="274" viewBox="0 0 420 274" fill="none" xmlns="http://www.w3.org/2000/svg">
<g clip-path="url(#clip0_1_638)">
<path d="M0.474609 20C0.474609 8.95429 9.42892 0 20.4746 0H400.475C411.52 0 420.475 8.95431 420.475 20V273.229H0.474609V20Z" fill="white"/>
<g filter="url(#filter0_b_1_638)">
<g clip-path="url(#clip1_1_638)">
<path d="M38 107H270V147.893H38V107Z" fill="#7A6E9E" fill-opacity="0.53"/>
<path d="M270 147.035H38V148.751H270V147.035Z" fill="white" fill-opacity="0.1"/>
<path d="M61.5013 127.454C61.5013 128.52 61.3063 129.437 60.9162 130.204C60.5262 130.968 59.9915 131.556 59.3121 131.969C58.636 132.378 57.8673 132.583 57.0059 132.583C56.1412 132.583 55.3692 132.378 54.6899 131.969C54.0138 131.556 53.4807 130.966 53.0906 130.199C52.7005 129.432 52.5055 128.517 52.5055 127.454C52.5055 126.388 52.7005 125.473 53.0906 124.709C53.4807 123.942 54.0138 123.353 54.6899 122.944C55.3692 122.531 56.1412 122.325 57.0059 122.325C57.8673 122.325 58.636 122.531 59.3121 122.944C59.9915 123.353 60.5262 123.942 60.9162 124.709C61.3063 125.473 61.5013 126.388 61.5013 127.454ZM60.0094 127.454C60.0094 126.641 59.8777 125.957 59.6144 125.401C59.3544 124.842 58.9968 124.419 58.5417 124.133C58.0899 123.844 57.578 123.699 57.0059 123.699C56.4305 123.699 55.9169 123.844 55.4651 124.133C55.0133 124.419 54.6557 124.842 54.3924 125.401C54.1324 125.957 54.0024 126.641 54.0024 127.454C54.0024 128.266 54.1324 128.952 54.3924 129.511C54.6557 130.067 55.0133 130.49 55.4651 130.779C55.9169 131.065 56.4305 131.208 57.0059 131.208C57.578 131.208 58.0899 131.065 58.5417 130.779C58.9968 130.49 59.3544 130.067 59.6144 129.511C59.8777 128.952 60.0094 128.266 60.0094 127.454ZM63.1051 132.447V122.461H66.6645C67.4381 122.461 68.0801 122.594 68.5904 122.861C69.104 123.127 69.4875 123.496 69.7411 123.968C69.9946 124.436 70.1214 124.977 70.1214 125.591C70.1214 126.202 69.993 126.74 69.7362 127.205C69.4827 127.667 69.0991 128.026 68.5855 128.283C68.0752 128.54 67.4332 128.668 66.6596 128.668H63.9633V127.371H66.5231C67.0106 127.371 67.4072 127.301 67.7128 127.161C68.0216 127.022 68.2475 126.818 68.3905 126.552C68.5335 126.285 68.605 125.965 68.605 125.591C68.605 125.214 68.5319 124.888 68.3856 124.611C68.2426 124.335 68.0167 124.124 67.7079 123.977C67.4023 123.828 67.0009 123.753 66.5036 123.753H64.6118V132.447H63.1051ZM68.0346 127.941L70.5017 132.447H68.7854L66.367 127.941H68.0346ZM74.9127 132.447H71.6801V122.461H75.0151C75.9935 122.461 76.8338 122.661 77.5359 123.061C78.238 123.457 78.776 124.028 79.1498 124.772C79.5269 125.513 79.7154 126.402 79.7154 127.439C79.7154 128.479 79.5252 129.373 79.1449 130.121C78.7679 130.869 78.2218 131.444 77.5067 131.847C76.7916 132.247 75.9269 132.447 74.9127 132.447ZM73.1867 131.13H74.8299C75.5905 131.13 76.2227 130.987 76.7265 130.701C77.2304 130.412 77.6074 129.994 77.8577 129.448C78.108 128.899 78.2332 128.229 78.2332 127.439C78.2332 126.656 78.108 125.991 77.8577 125.445C77.6107 124.899 77.2417 124.484 76.7509 124.202C76.2601 123.919 75.6506 123.777 74.9225 123.777H73.1867V131.13ZM81.3143 132.447V122.461H87.5748V123.758H82.8209V126.8H87.2482V128.093H82.8209V131.15H87.6333V132.447H81.3143ZM89.3127 132.447V122.461H92.872C93.6457 122.461 94.2876 122.594 94.798 122.861C95.3116 123.127 95.6951 123.496 95.9487 123.968C96.2022 124.436 96.329 124.977 96.329 125.591C96.329 126.202 96.2006 126.74 95.9438 127.205C95.6902 127.667 95.3067 128.026 94.7931 128.283C94.2828 128.54 93.6408 128.668 92.8672 128.668H90.1709V127.371H92.7306C93.2182 127.371 93.6148 127.301 93.9203 127.161C94.2291 127.022 94.455 126.818 94.5981 126.552C94.7411 126.285 94.8126 125.965 94.8126 125.591C94.8126 125.214 94.7395 124.888 94.5932 124.611C94.4502 124.335 94.2243 124.124 93.9155 123.977C93.6099 123.828 93.2085 123.753 92.7111 123.753H90.8193V132.447H89.3127ZM94.2421 127.941L96.7093 132.447H94.993L92.5746 127.941H94.2421ZM101.247 132.447V122.461H104.806C105.583 122.461 106.227 122.602 106.737 122.885C107.247 123.168 107.629 123.555 107.883 124.046C108.136 124.533 108.263 125.083 108.263 125.694C108.263 126.308 108.135 126.861 107.878 127.351C107.624 127.839 107.241 128.226 106.727 128.512C106.217 128.795 105.575 128.936 104.801 128.936H102.354V127.659H104.665C105.156 127.659 105.554 127.574 105.859 127.405C106.165 127.233 106.389 126.999 106.532 126.703C106.675 126.407 106.747 126.071 106.747 125.694C106.747 125.317 106.675 124.982 106.532 124.689C106.389 124.397 106.163 124.168 105.854 124.002C105.549 123.836 105.146 123.753 104.645 123.753H102.753V132.447H101.247ZM109.755 132.447V122.461H111.261V131.15H115.786V132.447H109.755ZM118.583 132.447H116.984L120.577 122.461H122.318L125.911 132.447H124.312L121.489 124.275H121.411L118.583 132.447ZM118.851 128.536H124.039V129.804H118.851V128.536ZM134.903 125.708H133.382C133.324 125.383 133.215 125.097 133.055 124.85C132.896 124.603 132.701 124.393 132.47 124.221C132.24 124.049 131.981 123.919 131.695 123.831C131.412 123.743 131.112 123.699 130.793 123.699C130.218 123.699 129.702 123.844 129.247 124.133C128.796 124.423 128.438 124.847 128.175 125.406C127.915 125.965 127.785 126.648 127.785 127.454C127.785 128.266 127.915 128.952 128.175 129.511C128.438 130.071 128.797 130.493 129.252 130.779C129.707 131.065 130.219 131.208 130.788 131.208C131.103 131.208 131.402 131.166 131.685 131.081C131.971 130.994 132.23 130.865 132.461 130.696C132.691 130.527 132.886 130.321 133.046 130.077C133.208 129.83 133.32 129.547 133.382 129.229L134.903 129.234C134.822 129.724 134.664 130.176 134.43 130.589C134.2 130.999 133.902 131.353 133.538 131.652C133.177 131.948 132.764 132.177 132.3 132.339C131.835 132.502 131.328 132.583 130.778 132.583C129.914 132.583 129.143 132.378 128.467 131.969C127.791 131.556 127.258 130.966 126.868 130.199C126.481 129.432 126.288 128.517 126.288 127.454C126.288 126.388 126.483 125.473 126.873 124.709C127.263 123.942 127.796 123.353 128.472 122.944C129.148 122.531 129.917 122.325 130.778 122.325C131.308 122.325 131.802 122.401 132.261 122.554C132.722 122.703 133.137 122.924 133.504 123.217C133.871 123.506 134.175 123.86 134.416 124.28C134.656 124.696 134.819 125.172 134.903 125.708ZM136.432 132.447V122.461H142.692V123.758H137.938V126.8H142.365V128.093H137.938V131.15H142.751V132.447H136.432ZM147.663 132.447H144.43V122.461H147.765C148.743 122.461 149.584 122.661 150.286 123.061C150.988 123.457 151.526 124.028 151.9 124.772C152.277 125.513 152.465 126.402 152.465 127.439C152.465 128.479 152.275 129.373 151.895 130.121C151.518 130.869 150.972 131.444 150.257 131.847C149.541 132.247 148.677 132.447 147.663 132.447ZM145.937 131.13H147.58C148.34 131.13 148.973 130.987 149.476 130.701C149.98 130.412 150.357 129.994 150.608 129.448C150.858 128.899 150.983 128.229 150.983 127.439C150.983 126.656 150.858 125.991 150.608 125.445C150.361 124.899 149.992 124.484 149.501 124.202C149.01 123.919 148.4 123.777 147.672 123.777H145.937V131.13Z" fill="#FEFEFE"/>
<rect width="232" height="161.33" transform="translate(38 147.893)" fill="url(#paint0_linear_1_638)" fill-opacity="0.05"/>
<path d="M98.6354 211.267V215.609C101.845 215.911 104.639 217.61 105.923 220.631L103.921 221.688C102.789 219.234 100.561 217.875 97.5781 217.875C94.5952 217.875 92.0277 219.8 92.0277 222.443C92.0277 225.766 95.1239 226.446 98.4466 227.163C102.26 227.994 106.527 229.127 106.527 234.186C106.527 238.491 102.827 241.36 98.22 241.36V245.627H95.879V241.172C92.7828 240.643 90.2531 238.906 89.1203 236.187L91.1592 235.168C92.2542 237.66 94.7463 239.057 97.9935 239.057C101.467 239.057 104.11 237.282 104.11 234.186C104.11 230.826 101.09 230.184 97.7669 229.504C93.9533 228.674 89.6112 227.541 89.6112 222.519C89.6112 218.97 92.5563 216.213 96.2944 215.685V211.267H98.6354ZM119.855 241.058H117.438V218.63C117.438 218.29 117.325 218.101 117.061 218.101C116.759 218.101 116.494 218.29 116.23 218.441L110.378 221.953L109.283 219.725L115.362 216.213C116.155 215.76 116.91 215.458 117.778 215.458C119.024 215.458 119.855 216.327 119.855 217.837V241.058ZM141.047 241.058H138.706V235.697H128.172C126.284 235.697 125.227 234.677 125.227 233.318C125.227 232.6 125.491 231.807 126.057 231.015L135.308 217.497C136.063 216.402 136.819 215.458 138.631 215.458C140.066 215.458 141.047 216.515 141.047 217.95V233.507H145.465V235.697H141.047V241.058ZM128.474 233.507H138.706V218.479C138.706 218.026 138.555 217.686 138.102 217.686C137.649 217.686 137.385 218.064 137.007 218.63L127.794 232.11C127.568 232.412 127.492 232.676 127.492 232.902C127.492 233.356 127.908 233.507 128.474 233.507ZM156.534 215.458C161.556 215.458 165.332 219.121 165.332 223.916C165.332 226.144 164.463 228.107 163.255 230.222L157.1 241.096H154.344L159.592 231.883C158.573 232.336 157.44 232.6 156.307 232.6C151.588 232.6 147.736 229.127 147.736 224.18C147.736 219.196 151.588 215.458 156.534 215.458ZM156.534 217.686C152.985 217.686 150.077 220.405 150.077 224.029C150.077 227.654 152.985 230.373 156.534 230.373C160.499 230.373 162.991 227.05 162.991 223.916C162.991 220.291 160.083 217.686 156.534 217.686ZM170.376 241.36C169.432 241.36 168.677 240.605 168.677 239.623C168.677 238.679 169.432 237.962 170.376 237.962C171.32 237.962 172.075 238.679 172.075 239.623C172.075 240.605 171.32 241.36 170.376 241.36ZM185.913 241.474C180.212 241.474 176.285 235.621 176.285 228.409C176.285 221.197 180.25 215.458 185.913 215.458C191.577 215.458 195.504 221.197 195.504 228.409C195.504 235.621 191.539 241.474 185.913 241.474ZM185.913 239.019C189.991 239.019 193.012 234.224 193.012 228.409C193.012 222.594 190.029 217.875 185.913 217.875C181.835 217.875 178.777 222.594 178.777 228.409C178.777 234.224 181.76 239.019 185.913 239.019ZM209.438 241.474C203.737 241.474 199.81 235.621 199.81 228.409C199.81 221.197 203.775 215.458 209.438 215.458C215.102 215.458 219.029 221.197 219.029 228.409C219.029 235.621 215.064 241.474 209.438 241.474ZM209.438 239.019C213.516 239.019 216.537 234.224 216.537 228.409C216.537 222.594 213.554 217.875 209.438 217.875C205.36 217.875 202.302 222.594 202.302 228.409C202.302 234.224 205.285 239.019 209.438 239.019Z" fill="#242424"/>
</g>
</g>
<g filter="url(#filter1_b_1_638)">
<g clip-path="url(#clip2_1_638)">
<path d="M149 47H382V87.893H149V47Z" fill="#7A6E9E" fill-opacity="0.53"/>
<path d="M382 87.0349H149V88.7512H382V87.0349Z" fill="white" fill-opacity="0.1"/>
<path d="M172.501 67.4538C172.501 68.52 172.306 69.4367 171.916 70.2038C171.526 70.9677 170.991 71.556 170.312 71.9688C169.636 72.3784 168.867 72.5832 168.006 72.5832C167.141 72.5832 166.369 72.3784 165.69 71.9688C165.014 71.556 164.481 70.966 164.091 70.1989C163.701 69.4318 163.506 68.5168 163.506 67.4538C163.506 66.3877 163.701 65.4726 164.091 64.7088C164.481 63.9416 165.014 63.3533 165.69 62.9437C166.369 62.5309 167.141 62.3245 168.006 62.3245C168.867 62.3245 169.636 62.5309 170.312 62.9437C170.991 63.3533 171.526 63.9416 171.916 64.7088C172.306 65.4726 172.501 66.3877 172.501 67.4538ZM171.009 67.4538C171.009 66.6412 170.878 65.957 170.614 65.4011C170.354 64.842 169.997 64.4195 169.542 64.1334C169.09 63.8441 168.578 63.6995 168.006 63.6995C167.431 63.6995 166.917 63.8441 166.465 64.1334C166.013 64.4195 165.656 64.842 165.392 65.4011C165.132 65.957 165.002 66.6412 165.002 67.4538C165.002 68.2665 165.132 68.9523 165.392 69.5114C165.656 70.0673 166.013 70.4898 166.465 70.7791C166.917 71.0652 167.431 71.2082 168.006 71.2082C168.578 71.2082 169.09 71.0652 169.542 70.7791C169.997 70.4898 170.354 70.0673 170.614 69.5114C170.878 68.9523 171.009 68.2665 171.009 67.4538ZM174.105 72.4467V62.461H177.664C178.438 62.461 179.08 62.5943 179.59 62.8608C180.104 63.1274 180.488 63.4963 180.741 63.9677C180.995 64.4357 181.121 64.9769 181.121 65.5913C181.121 66.2024 180.993 66.7404 180.736 67.2052C180.483 67.6668 180.099 68.0259 179.586 68.2827C179.075 68.5395 178.433 68.6679 177.66 68.6679H174.963V67.371H177.523C178.011 67.371 178.407 67.3011 178.713 67.1613C179.022 67.0215 179.247 66.8184 179.39 66.5518C179.534 66.2853 179.605 65.9651 179.605 65.5913C179.605 65.2142 179.532 64.8876 179.386 64.6113C179.243 64.335 179.017 64.1237 178.708 63.9774C178.402 63.8279 178.001 63.7531 177.504 63.7531H175.612V72.4467H174.105ZM179.035 67.9414L181.502 72.4467H179.785L177.367 67.9414H179.035ZM185.913 72.4467H182.68V62.461H186.015C186.994 62.461 187.834 62.6609 188.536 63.0608C189.238 63.4573 189.776 64.0278 190.15 64.7722C190.527 65.5133 190.715 66.4023 190.715 67.4392C190.715 68.4794 190.525 69.3733 190.145 70.1209C189.768 70.8685 189.222 71.4439 188.507 71.8469C187.792 72.2467 186.927 72.4467 185.913 72.4467ZM184.187 71.1302H185.83C186.59 71.1302 187.223 70.9872 187.727 70.7011C188.23 70.4118 188.607 69.9941 188.858 69.448C189.108 68.8987 189.233 68.2291 189.233 67.4392C189.233 66.6558 189.108 65.9911 188.858 65.445C188.611 64.8989 188.242 64.4845 187.751 64.2017C187.26 63.9189 186.651 63.7775 185.922 63.7775H184.187V71.1302ZM192.314 72.4467V62.461H198.575V63.758H193.821V66.8005H198.248V68.0926H193.821V71.1497H198.633V72.4467H192.314ZM200.313 72.4467V62.461H203.872C204.646 62.461 205.288 62.5943 205.798 62.8608C206.312 63.1274 206.695 63.4963 206.949 63.9677C207.202 64.4357 207.329 64.9769 207.329 65.5913C207.329 66.2024 207.201 66.7404 206.944 67.2052C206.69 67.6668 206.307 68.0259 205.793 68.2827C205.283 68.5395 204.641 68.6679 203.867 68.6679H201.171V67.371H203.731C204.218 67.371 204.615 67.3011 204.92 67.1613C205.229 67.0215 205.455 66.8184 205.598 66.5518C205.741 66.2853 205.813 65.9651 205.813 65.5913C205.813 65.2142 205.739 64.8876 205.593 64.6113C205.45 64.335 205.224 64.1237 204.915 63.9774C204.61 63.8279 204.208 63.7531 203.711 63.7531H201.819V72.4467H200.313ZM205.242 67.9414L207.709 72.4467H205.993L203.575 67.9414H205.242ZM215.479 72.4467H212.247V62.461H215.582C216.56 62.461 217.4 62.6609 218.103 63.0608C218.805 63.4573 219.343 64.0278 219.716 64.7722C220.094 65.5133 220.282 66.4023 220.282 67.4392C220.282 68.4794 220.092 69.3733 219.712 70.1209C219.335 70.8685 218.788 71.4439 218.073 71.8469C217.358 72.2467 216.494 72.4467 215.479 72.4467ZM213.753 71.1302H215.397C216.157 71.1302 216.789 70.9872 217.293 70.7011C217.797 70.4118 218.174 69.9941 218.424 69.448C218.675 68.8987 218.8 68.2291 218.8 67.4392C218.8 66.6558 218.675 65.9911 218.424 65.445C218.177 64.8989 217.808 64.4845 217.318 64.2017C216.827 63.9189 216.217 63.7775 215.489 63.7775H213.753V71.1302ZM221.881 72.4467V62.461H228.141V63.758H223.388V66.8005H227.815V68.0926H223.388V71.1497H228.2V72.4467H221.881ZM229.879 72.4467V62.461H231.386V71.1497H235.911V72.4467H229.879ZM238.861 62.461V72.4467H237.355V62.461H238.861ZM241.654 62.461L244.433 70.5939H244.545L247.324 62.461H248.953L245.359 72.4467H243.619L240.025 62.461H241.654ZM250.12 72.4467V62.461H256.381V63.758H251.627V66.8005H256.054V68.0926H251.627V71.1497H256.439V72.4467H250.12ZM258.119 72.4467V62.461H261.678C262.452 62.461 263.094 62.5943 263.604 62.8608C264.117 63.1274 264.501 63.4963 264.755 63.9677C265.008 64.4357 265.135 64.9769 265.135 65.5913C265.135 66.2024 265.006 66.7404 264.75 67.2052C264.496 67.6668 264.113 68.0259 263.599 68.2827C263.089 68.5395 262.447 68.6679 261.673 68.6679H258.977V67.371H261.537C262.024 67.371 262.421 67.3011 262.726 67.1613C263.035 67.0215 263.261 66.8184 263.404 66.5518C263.547 66.2853 263.618 65.9651 263.618 65.5913C263.618 65.2142 263.545 64.8876 263.399 64.6113C263.256 64.335 263.03 64.1237 262.721 63.9774C262.416 63.8279 262.014 63.7531 261.517 63.7531H259.625V72.4467H258.119ZM263.048 67.9414L265.515 72.4467H263.799L261.38 67.9414H263.048ZM266.694 72.4467V62.461H272.954V63.758H268.2V66.8005H272.627V68.0926H268.2V71.1497H273.013V72.4467H266.694ZM277.925 72.4467H274.692V62.461H278.027C279.005 62.461 279.846 62.6609 280.548 63.0608C281.25 63.4573 281.788 64.0278 282.162 64.7722C282.539 65.5133 282.727 66.4023 282.727 67.4392C282.727 68.4794 282.537 69.3733 282.157 70.1209C281.78 70.8685 281.234 71.4439 280.519 71.8469C279.803 72.2467 278.939 72.4467 277.925 72.4467ZM276.199 71.1302H277.842C278.602 71.1302 279.235 70.9872 279.738 70.7011C280.242 70.4118 280.619 69.9941 280.87 69.448C281.12 68.8987 281.245 68.2291 281.245 67.4392C281.245 66.6558 281.12 65.9911 280.87 65.445C280.623 64.8989 280.254 64.4845 279.763 64.2017C279.272 63.9189 278.662 63.7775 277.934 63.7775H276.199V71.1302Z" fill="#FEFEFE"/>
<rect width="233" height="161.33" transform="translate(149 87.8931)" fill="url(#paint1_linear_1_638)" fill-opacity="0.05"/>
<path d="M210.135 151.267V155.609C213.345 155.911 216.139 157.61 217.423 160.631L215.421 161.688C214.289 159.234 212.061 157.875 209.078 157.875C206.095 157.875 203.528 159.8 203.528 162.443C203.528 165.766 206.624 166.446 209.947 167.163C213.76 167.994 218.027 169.127 218.027 174.186C218.027 178.491 214.327 181.36 209.72 181.36V185.627H207.379V181.172C204.283 180.643 201.753 178.906 200.62 176.187L202.659 175.168C203.754 177.66 206.246 179.057 209.493 179.057C212.967 179.057 215.61 177.282 215.61 174.186C215.61 170.826 212.59 170.184 209.267 169.504C205.453 168.674 201.111 167.541 201.111 162.519C201.111 158.97 204.056 156.213 207.794 155.685V151.267H210.135ZM231.355 181.058H228.938V158.63C228.938 158.29 228.825 158.101 228.561 158.101C228.259 158.101 227.994 158.29 227.73 158.441L221.878 161.953L220.783 159.725L226.862 156.213C227.655 155.76 228.41 155.458 229.278 155.458C230.524 155.458 231.355 156.327 231.355 157.837V181.058ZM252.547 181.058H250.206V175.697H239.672C237.784 175.697 236.727 174.677 236.727 173.318C236.727 172.6 236.991 171.807 237.557 171.015L246.808 157.497C247.563 156.402 248.319 155.458 250.131 155.458C251.566 155.458 252.547 156.515 252.547 157.95V173.507H256.965V175.697H252.547V181.058ZM239.974 173.507H250.206V158.479C250.206 158.026 250.055 157.686 249.602 157.686C249.149 157.686 248.885 158.064 248.507 158.63L239.294 172.11C239.068 172.412 238.992 172.676 238.992 172.902C238.992 173.356 239.408 173.507 239.974 173.507ZM268.034 155.458C273.056 155.458 276.832 159.121 276.832 163.916C276.832 166.144 275.963 168.107 274.755 170.222L268.6 181.096H265.844L271.092 171.883C270.073 172.336 268.94 172.6 267.807 172.6C263.088 172.6 259.236 169.127 259.236 164.18C259.236 159.196 263.088 155.458 268.034 155.458ZM268.034 157.686C264.485 157.686 261.577 160.405 261.577 164.029C261.577 167.654 264.485 170.373 268.034 170.373C271.999 170.373 274.491 167.05 274.491 163.916C274.491 160.291 271.583 157.686 268.034 157.686ZM281.876 181.36C280.932 181.36 280.177 180.605 280.177 179.623C280.177 178.679 280.932 177.962 281.876 177.962C282.82 177.962 283.575 178.679 283.575 179.623C283.575 180.605 282.82 181.36 281.876 181.36ZM297.413 181.474C291.712 181.474 287.785 175.621 287.785 168.409C287.785 161.197 291.75 155.458 297.413 155.458C303.077 155.458 307.004 161.197 307.004 168.409C307.004 175.621 303.039 181.474 297.413 181.474ZM297.413 179.019C301.491 179.019 304.512 174.224 304.512 168.409C304.512 162.594 301.529 157.875 297.413 157.875C293.335 157.875 290.277 162.594 290.277 168.409C290.277 174.224 293.26 179.019 297.413 179.019ZM320.938 181.474C315.237 181.474 311.31 175.621 311.31 168.409C311.31 161.197 315.275 155.458 320.938 155.458C326.602 155.458 330.529 161.197 330.529 168.409C330.529 175.621 326.564 181.474 320.938 181.474ZM320.938 179.019C325.016 179.019 328.037 174.224 328.037 168.409C328.037 162.594 325.054 157.875 320.938 157.875C316.86 157.875 313.802 162.594 313.802 168.409C313.802 174.224 316.785 179.019 320.938 179.019Z" fill="#242424"/>
</g>
</g>
</g>
<defs>
<filter id="filter0_b_1_638" x="-70" y="-1" width="448" height="407" filterUnits="userSpaceOnUse" color-interpolation-filters="sRGB">
<feFlood flood-opacity="0" result="BackgroundImageFix"/>
<feGaussianBlur in="BackgroundImageFix" stdDeviation="54"/>
<feComposite in2="SourceAlpha" operator="in" result="effect1_backgroundBlur_1_638"/>
<feBlend mode="normal" in="SourceGraphic" in2="effect1_backgroundBlur_1_638" result="shape"/>
</filter>
<filter id="filter1_b_1_638" x="41" y="-61" width="449" height="407" filterUnits="userSpaceOnUse" color-interpolation-filters="sRGB">
<feFlood flood-opacity="0" result="BackgroundImageFix"/>
<feGaussianBlur in="BackgroundImageFix" stdDeviation="54"/>
<feComposite in2="SourceAlpha" operator="in" result="effect1_backgroundBlur_1_638"/>
<feBlend mode="normal" in="SourceGraphic" in2="effect1_backgroundBlur_1_638" result="shape"/>
</filter>
<linearGradient id="paint0_linear_1_638" x1="116" y1="0" x2="116" y2="161.33" gradientUnits="userSpaceOnUse">
<stop stop-color="white"/>
<stop offset="1" stop-color="white" stop-opacity="0.5"/>
</linearGradient>
<linearGradient id="paint1_linear_1_638" x1="116.5" y1="0" x2="116.5" y2="161.33" gradientUnits="userSpaceOnUse">
<stop stop-color="white"/>
<stop offset="1" stop-color="white" stop-opacity="0.5"/>
</linearGradient>
<clipPath id="clip0_1_638">
<rect width="420" height="273.229" fill="white" transform="translate(0.474609)"/>
</clipPath>
<clipPath id="clip1_1_638">
<rect x="38" y="107" width="232" height="191" rx="6.86512" fill="white"/>
</clipPath>
<clipPath id="clip2_1_638">
<rect x="149" y="47" width="233" height="191" rx="6.86512" fill="white"/>
</clipPath>
</defs>
</svg>
