<svg width="205" height="72" viewBox="0 0 205 72" fill="none" xmlns="http://www.w3.org/2000/svg">
<path d="M197.836 32.0746C197.836 36.4434 194.295 39.985 189.926 39.985C185.557 39.985 182.015 36.4434 182.015 32.0746C182.015 27.7058 185.557 24.1641 189.926 24.1641C194.295 24.1641 197.836 27.7058 197.836 32.0746Z" fill="#FFC800"/>
<path fill-rule="evenodd" clip-rule="evenodd" d="M189.999 42.2544C195.663 42.2544 200.254 37.6632 200.254 31.9997C200.254 26.3363 195.663 21.7451 189.999 21.7451C184.336 21.7451 179.745 26.3363 179.745 31.9997C179.745 37.6632 184.336 42.2544 189.999 42.2544ZM189.999 42.5221C195.811 42.5221 200.522 37.8111 200.522 31.9997C200.522 26.1884 195.811 21.4774 189.999 21.4774C184.188 21.4774 179.477 26.1884 179.477 31.9997C179.477 37.8111 184.188 42.5221 189.999 42.5221Z" fill="#FFC800"/>
<path opacity="0.15" fill-rule="evenodd" clip-rule="evenodd" d="M190 44.4334C196.867 44.4334 202.433 38.8668 202.433 32C202.433 25.1332 196.867 19.5666 190 19.5666C183.133 19.5666 177.567 25.1332 177.567 32C177.567 38.8668 183.133 44.4334 190 44.4334ZM190 47C198.284 47 205 40.2843 205 32C205 23.7157 198.284 17 190 17C181.716 17 175 23.7157 175 32C175 40.2843 181.716 47 190 47Z" fill="#FFC800"/>
<g filter="url(#filter0_bdi_1_204)">
<rect x="20" y="16" width="151" height="32" rx="16" fill="#474141" fill-opacity="0.26" shape-rendering="crispEdges"/>
<rect x="20.5" y="16.5" width="150" height="31" rx="15.5" stroke="white" stroke-opacity="0.12" shape-rendering="crispEdges"/>
<path d="M32.984 36L32.984 27.54L34.232 27.54L34.232 36L32.984 36ZM36.2012 36L36.2012 30.144L37.3772 30.144L37.3772 31.116C37.5772 30.764 37.8492 30.496 38.1932 30.312C38.5452 30.128 38.9372 30.036 39.3692 30.036C40.7532 30.036 41.4452 30.82 41.4452 32.388L41.4452 36L40.2332 36L40.2332 32.46C40.2332 31.956 40.1332 31.588 39.9332 31.356C39.7412 31.124 39.4372 31.008 39.0212 31.008C38.5332 31.008 38.1412 31.164 37.8452 31.476C37.5572 31.78 37.4132 32.184 37.4132 32.688L37.4132 36L36.2012 36ZM45.3173 36.108C44.8373 36.108 44.3893 36.048 43.9733 35.928C43.5573 35.8 43.2093 35.624 42.9293 35.4L43.2773 34.584C43.5733 34.792 43.8973 34.952 44.2493 35.064C44.6093 35.176 44.9693 35.232 45.3293 35.232C45.7533 35.232 46.0733 35.156 46.2893 35.004C46.5053 34.852 46.6133 34.648 46.6133 34.392C46.6133 34.184 46.5413 34.024 46.3973 33.912C46.2533 33.792 46.0373 33.7 45.7493 33.636L44.6093 33.408C43.6013 33.2 43.0973 32.68 43.0973 31.848C43.0973 31.296 43.3173 30.856 43.7573 30.528C44.1973 30.2 44.7733 30.036 45.4853 30.036C45.8933 30.036 46.2813 30.096 46.6493 30.216C47.0253 30.336 47.3373 30.516 47.5853 30.756L47.2373 31.572C46.9973 31.364 46.7213 31.204 46.4093 31.092C46.0973 30.98 45.7893 30.924 45.4853 30.924C45.0693 30.924 44.7533 31.004 44.5373 31.164C44.3213 31.316 44.2133 31.524 44.2133 31.788C44.2133 32.188 44.4773 32.444 45.0053 32.556L46.1453 32.784C46.6653 32.888 47.0573 33.064 47.3213 33.312C47.5933 33.56 47.7293 33.896 47.7293 34.32C47.7293 34.88 47.5093 35.32 47.0693 35.64C46.6293 35.952 46.0453 36.108 45.3173 36.108ZM49.1198 28.788L49.1198 27.528L50.5358 27.528L50.5358 28.788L49.1198 28.788ZM49.2278 36L49.2278 30.144L50.4398 30.144L50.4398 36L49.2278 36ZM54.9478 38.268C54.4198 38.268 53.9278 38.204 53.4718 38.076C53.0158 37.956 52.6118 37.764 52.2598 37.5L52.6318 36.636C52.9838 36.876 53.3438 37.052 53.7118 37.164C54.0798 37.276 54.4638 37.332 54.8638 37.332C55.9838 37.332 56.5438 36.772 56.5438 35.652L56.5438 34.728C56.3758 35.08 56.1118 35.356 55.7518 35.556C55.3998 35.756 55.0038 35.856 54.5638 35.856C54.0358 35.856 53.5758 35.736 53.1838 35.496C52.7918 35.248 52.4878 34.908 52.2718 34.476C52.0558 34.036 51.9478 33.524 51.9478 32.94C51.9478 32.364 52.0558 31.86 52.2718 31.428C52.4878 30.988 52.7918 30.648 53.1838 30.408C53.5758 30.16 54.0358 30.036 54.5638 30.036C55.0118 30.036 55.4118 30.136 55.7638 30.336C56.1158 30.536 56.3758 30.812 56.5438 31.164L56.5438 30.144L57.7198 30.144L57.7198 35.508C57.7198 36.428 57.4838 37.116 57.0118 37.572C56.5398 38.036 55.8518 38.268 54.9478 38.268ZM54.8518 34.908C55.3638 34.908 55.7718 34.732 56.0758 34.38C56.3798 34.028 56.5318 33.548 56.5318 32.94C56.5318 32.332 56.3798 31.856 56.0758 31.512C55.7718 31.16 55.3638 30.984 54.8518 30.984C54.3398 30.984 53.9318 31.16 53.6278 31.512C53.3238 31.856 53.1718 32.332 53.1718 32.94C53.1718 33.548 53.3238 34.028 53.6278 34.38C53.9318 34.732 54.3398 34.908 54.8518 34.908ZM59.5708 36L59.5708 27.54L60.7828 27.54L60.7828 31.056C60.9828 30.72 61.2508 30.468 61.5868 30.3C61.9308 30.124 62.3148 30.036 62.7388 30.036C64.1228 30.036 64.8148 30.82 64.8148 32.388L64.8148 36L63.6028 36L63.6028 32.46C63.6028 31.956 63.5028 31.588 63.3028 31.356C63.1108 31.124 62.8068 31.008 62.3908 31.008C61.9028 31.008 61.5108 31.164 61.2148 31.476C60.9268 31.78 60.7828 32.184 60.7828 32.688L60.7828 36L59.5708 36ZM69.1308 36.108C68.3948 36.108 67.8468 35.92 67.4868 35.544C67.1268 35.168 66.9468 34.624 66.9468 33.912L66.9468 31.08L65.8068 31.08L65.8068 30.144L66.9468 30.144L66.9468 28.38L68.1588 28.38L68.1588 30.144L69.9708 30.144L69.9708 31.08L68.1588 31.08L68.1588 33.816C68.1588 34.24 68.2468 34.56 68.4228 34.776C68.6068 34.992 68.9028 35.1 69.3108 35.1C69.4388 35.1 69.5628 35.088 69.6828 35.064C69.8028 35.032 69.9228 34.996 70.0428 34.956L70.2348 35.868C70.1148 35.94 69.9468 35.996 69.7308 36.036C69.5228 36.084 69.3228 36.108 69.1308 36.108ZM73.2196 36.108C72.7396 36.108 72.2916 36.048 71.8756 35.928C71.4596 35.8 71.1116 35.624 70.8316 35.4L71.1796 34.584C71.4756 34.792 71.7996 34.952 72.1516 35.064C72.5116 35.176 72.8716 35.232 73.2316 35.232C73.6556 35.232 73.9756 35.156 74.1916 35.004C74.4076 34.852 74.5156 34.648 74.5156 34.392C74.5156 34.184 74.4436 34.024 74.2996 33.912C74.1556 33.792 73.9396 33.7 73.6516 33.636L72.5116 33.408C71.5036 33.2 70.9996 32.68 70.9996 31.848C70.9996 31.296 71.2196 30.856 71.6596 30.528C72.0996 30.2 72.6756 30.036 73.3876 30.036C73.7956 30.036 74.1836 30.096 74.5516 30.216C74.9276 30.336 75.2396 30.516 75.4876 30.756L75.1396 31.572C74.8996 31.364 74.6236 31.204 74.3116 31.092C73.9996 30.98 73.6916 30.924 73.3876 30.924C72.9716 30.924 72.6556 31.004 72.4396 31.164C72.2236 31.316 72.1156 31.524 72.1156 31.788C72.1156 32.188 72.3796 32.444 72.9076 32.556L74.0476 32.784C74.5676 32.888 74.9596 33.064 75.2236 33.312C75.4956 33.56 75.6316 33.896 75.6316 34.32C75.6316 34.88 75.4116 35.32 74.9716 35.64C74.5316 35.952 73.9476 36.108 73.2196 36.108ZM84.2365 36.108C83.4285 36.108 82.7285 35.932 82.1365 35.58C81.5445 35.22 81.0845 34.716 80.7565 34.068C80.4365 33.412 80.2765 32.644 80.2765 31.764C80.2765 30.876 80.4365 30.108 80.7565 29.46C81.0845 28.812 81.5445 28.312 82.1365 27.96C82.7285 27.608 83.4285 27.432 84.2365 27.432C85.0365 27.432 85.7325 27.608 86.3245 27.96C86.9245 28.312 87.3845 28.812 87.7045 29.46C88.0325 30.108 88.1965 30.872 88.1965 31.752C88.1965 32.64 88.0325 33.412 87.7045 34.068C87.3845 34.716 86.9245 35.22 86.3245 35.58C85.7325 35.932 85.0365 36.108 84.2365 36.108ZM84.2365 35.028C85.0765 35.028 85.7285 34.744 86.1925 34.176C86.6645 33.6 86.9005 32.796 86.9005 31.764C86.9005 30.732 86.6685 29.932 86.2045 29.364C85.7405 28.796 85.0845 28.512 84.2365 28.512C83.3965 28.512 82.7405 28.796 82.2685 29.364C81.8045 29.932 81.5725 30.732 81.5725 31.764C81.5725 32.796 81.8045 33.6 82.2685 34.176C82.7405 34.744 83.3965 35.028 84.2365 35.028ZM90.2352 36L90.2352 31.08L89.0952 31.08L89.0952 30.144L90.2352 30.144L90.2352 30.036C90.2352 29.228 90.4392 28.62 90.8472 28.212C91.2632 27.804 91.8992 27.576 92.7552 27.528L93.2832 27.492L93.3672 28.404L92.8152 28.44C92.3272 28.472 91.9752 28.604 91.7592 28.836C91.5512 29.068 91.4472 29.412 91.4472 29.868L91.4472 30.144L93.0912 30.144L93.0912 31.08L91.4472 31.08L91.4472 36L90.2352 36ZM97.6317 36L97.6317 27.54L101.16 27.54C102.04 27.54 102.72 27.736 103.2 28.128C103.688 28.512 103.932 29.052 103.932 29.748C103.932 30.204 103.812 30.596 103.572 30.924C103.332 31.252 103.004 31.492 102.588 31.644C103.076 31.772 103.456 32.008 103.728 32.352C104 32.696 104.136 33.132 104.136 33.66C104.136 34.412 103.884 34.992 103.38 35.4C102.884 35.8 102.192 36 101.304 36L97.6317 36ZM98.8317 31.236L100.968 31.236C102.136 31.236 102.72 30.78 102.72 29.868C102.72 28.956 102.136 28.5 100.968 28.5L98.8317 28.5L98.8317 31.236ZM98.8317 35.04L101.16 35.04C102.336 35.04 102.924 34.564 102.924 33.612C102.924 32.668 102.336 32.196 101.16 32.196L98.8317 32.196L98.8317 35.04ZM108.577 36.108C107.617 36.108 106.861 35.84 106.309 35.304C105.757 34.76 105.481 34.02 105.481 33.084C105.481 32.484 105.601 31.956 105.841 31.5C106.089 31.036 106.429 30.676 106.861 30.42C107.293 30.164 107.789 30.036 108.349 30.036C109.157 30.036 109.793 30.296 110.257 30.816C110.721 31.328 110.953 32.036 110.953 32.94L110.953 33.348L106.657 33.348C106.745 34.564 107.389 35.172 108.589 35.172C108.925 35.172 109.253 35.12 109.573 35.016C109.901 34.912 110.209 34.74 110.497 34.5L110.857 35.34C110.593 35.58 110.253 35.768 109.837 35.904C109.421 36.04 109.001 36.108 108.577 36.108ZM108.397 30.888C107.893 30.888 107.493 31.044 107.197 31.356C106.901 31.668 106.721 32.084 106.657 32.604L109.933 32.604C109.909 32.06 109.765 31.64 109.501 31.344C109.237 31.04 108.869 30.888 108.397 30.888ZM114.477 36.108C113.997 36.108 113.549 36.048 113.133 35.928C112.717 35.8 112.369 35.624 112.089 35.4L112.437 34.584C112.733 34.792 113.057 34.952 113.409 35.064C113.769 35.176 114.129 35.232 114.489 35.232C114.913 35.232 115.233 35.156 115.449 35.004C115.665 34.852 115.773 34.648 115.773 34.392C115.773 34.184 115.701 34.024 115.557 33.912C115.413 33.792 115.197 33.7 114.909 33.636L113.769 33.408C112.761 33.2 112.257 32.68 112.257 31.848C112.257 31.296 112.477 30.856 112.917 30.528C113.357 30.2 113.933 30.036 114.645 30.036C115.053 30.036 115.441 30.096 115.809 30.216C116.185 30.336 116.497 30.516 116.745 30.756L116.397 31.572C116.157 31.364 115.881 31.204 115.569 31.092C115.257 30.98 114.949 30.924 114.645 30.924C114.229 30.924 113.913 31.004 113.697 31.164C113.481 31.316 113.373 31.524 113.373 31.788C113.373 32.188 113.637 32.444 114.165 32.556L115.305 32.784C115.825 32.888 116.217 33.064 116.481 33.312C116.753 33.56 116.889 33.896 116.889 34.32C116.889 34.88 116.669 35.32 116.229 35.64C115.789 35.952 115.205 36.108 114.477 36.108ZM120.825 36.108C120.089 36.108 119.541 35.92 119.181 35.544C118.821 35.168 118.641 34.624 118.641 33.912L118.641 31.08L117.501 31.08L117.501 30.144L118.641 30.144L118.641 28.38L119.853 28.38L119.853 30.144L121.665 30.144L121.665 31.08L119.853 31.08L119.853 33.816C119.853 34.24 119.941 34.56 120.117 34.776C120.301 34.992 120.597 35.1 121.005 35.1C121.133 35.1 121.257 35.088 121.377 35.064C121.497 35.032 121.617 34.996 121.737 34.956L121.929 35.868C121.809 35.94 121.641 35.996 121.425 36.036C121.217 36.084 121.017 36.108 120.825 36.108ZM129.116 36.108C128.452 36.108 127.844 36.024 127.292 35.856C126.74 35.68 126.272 35.436 125.888 35.124L126.284 34.14C126.684 34.444 127.112 34.672 127.568 34.824C128.024 34.976 128.54 35.052 129.116 35.052C129.796 35.052 130.296 34.932 130.616 34.692C130.944 34.444 131.108 34.124 131.108 33.732C131.108 33.412 130.992 33.16 130.76 32.976C130.528 32.784 130.14 32.632 129.596 32.52L128.312 32.256C127.552 32.096 126.984 31.832 126.608 31.464C126.24 31.096 126.056 30.6 126.056 29.976C126.056 29.472 126.188 29.028 126.452 28.644C126.724 28.26 127.1 27.964 127.58 27.756C128.06 27.54 128.612 27.432 129.236 27.432C129.812 27.432 130.344 27.52 130.832 27.696C131.328 27.864 131.748 28.112 132.092 28.44L131.684 29.388C131.004 28.788 130.184 28.488 129.224 28.488C128.632 28.488 128.16 28.62 127.808 28.884C127.464 29.148 127.292 29.5 127.292 29.94C127.292 30.276 127.4 30.544 127.616 30.744C127.832 30.944 128.192 31.096 128.696 31.2L129.968 31.464C130.768 31.632 131.364 31.892 131.756 32.244C132.148 32.588 132.344 33.056 132.344 33.648C132.344 34.144 132.212 34.576 131.948 34.944C131.684 35.312 131.312 35.6 130.832 35.808C130.352 36.008 129.78 36.108 129.116 36.108ZM136.527 36.108C135.567 36.108 134.811 35.84 134.259 35.304C133.707 34.76 133.431 34.02 133.431 33.084C133.431 32.484 133.551 31.956 133.791 31.5C134.039 31.036 134.379 30.676 134.811 30.42C135.243 30.164 135.739 30.036 136.299 30.036C137.107 30.036 137.743 30.296 138.207 30.816C138.671 31.328 138.903 32.036 138.903 32.94L138.903 33.348L134.607 33.348C134.695 34.564 135.339 35.172 136.539 35.172C136.875 35.172 137.203 35.12 137.523 35.016C137.851 34.912 138.159 34.74 138.447 34.5L138.807 35.34C138.543 35.58 138.203 35.768 137.787 35.904C137.371 36.04 136.951 36.108 136.527 36.108ZM136.347 30.888C135.843 30.888 135.443 31.044 135.147 31.356C134.851 31.668 134.671 32.084 134.607 32.604L137.883 32.604C137.859 32.06 137.715 31.64 137.451 31.344C137.187 31.04 136.819 30.888 136.347 30.888ZM142.282 36.108C141.642 36.108 141.162 35.928 140.842 35.568C140.53 35.208 140.374 34.68 140.374 33.984L140.374 27.54L141.586 27.54L141.586 33.912C141.586 34.704 141.91 35.1 142.558 35.1C142.654 35.1 142.742 35.096 142.822 35.088C142.91 35.08 142.998 35.064 143.086 35.04L143.062 36.012C142.79 36.076 142.53 36.108 142.282 36.108ZM146.1 36.108C145.46 36.108 144.98 35.928 144.66 35.568C144.348 35.208 144.192 34.68 144.192 33.984L144.192 27.54L145.404 27.54L145.404 33.912C145.404 34.704 145.728 35.1 146.376 35.1C146.472 35.1 146.56 35.096 146.64 35.088C146.728 35.08 146.816 35.064 146.904 35.04L146.88 36.012C146.608 36.076 146.348 36.108 146.1 36.108ZM150.699 36.108C149.739 36.108 148.983 35.84 148.431 35.304C147.879 34.76 147.603 34.02 147.603 33.084C147.603 32.484 147.723 31.956 147.963 31.5C148.211 31.036 148.551 30.676 148.983 30.42C149.415 30.164 149.911 30.036 150.471 30.036C151.279 30.036 151.915 30.296 152.379 30.816C152.843 31.328 153.075 32.036 153.075 32.94L153.075 33.348L148.779 33.348C148.867 34.564 149.511 35.172 150.711 35.172C151.047 35.172 151.375 35.12 151.695 35.016C152.023 34.912 152.331 34.74 152.619 34.5L152.979 35.34C152.715 35.58 152.375 35.768 151.959 35.904C151.543 36.04 151.123 36.108 150.699 36.108ZM150.519 30.888C150.015 30.888 149.615 31.044 149.319 31.356C149.023 31.668 148.843 32.084 148.779 32.604L152.055 32.604C152.031 32.06 151.887 31.64 151.623 31.344C151.359 31.04 150.991 30.888 150.519 30.888ZM154.547 36L154.547 30.144L155.723 30.144L155.723 31.188C156.027 30.492 156.659 30.104 157.619 30.024L158.015 30L158.099 31.032L157.367 31.104C156.303 31.208 155.771 31.756 155.771 32.748L155.771 36L154.547 36Z" fill="white"/>
</g>
<defs>
<filter id="filter0_bdi_1_204" x="-5" y="-9" width="201" height="82" filterUnits="userSpaceOnUse" color-interpolation-filters="sRGB">
<feFlood flood-opacity="0" result="BackgroundImageFix"/>
<feGaussianBlur in="BackgroundImageFix" stdDeviation="12.5"/>
<feComposite in2="SourceAlpha" operator="in" result="effect1_backgroundBlur_1_204"/>
<feColorMatrix in="SourceAlpha" type="matrix" values="0 0 0 0 0 0 0 0 0 0 0 0 0 0 0 0 0 0 127 0" result="hardAlpha"/>
<feOffset dy="4"/>
<feGaussianBlur stdDeviation="10"/>
<feComposite in2="hardAlpha" operator="out"/>
<feColorMatrix type="matrix" values="0 0 0 0 1 0 0 0 0 1 0 0 0 0 1 0 0 0 0.1 0"/>
<feBlend mode="normal" in2="effect1_backgroundBlur_1_204" result="effect2_dropShadow_1_204"/>
<feBlend mode="normal" in="SourceGraphic" in2="effect2_dropShadow_1_204" result="shape"/>
<feColorMatrix in="SourceAlpha" type="matrix" values="0 0 0 0 0 0 0 0 0 0 0 0 0 0 0 0 0 0 127 0" result="hardAlpha"/>
<feOffset dy="-5"/>
<feGaussianBlur stdDeviation="5.5"/>
<feComposite in2="hardAlpha" operator="arithmetic" k2="-1" k3="1"/>
<feColorMatrix type="matrix" values="0 0 0 0 1 0 0 0 0 1 0 0 0 0 1 0 0 0 0.19 0"/>
<feBlend mode="normal" in2="shape" result="effect3_innerShadow_1_204"/>
</filter>
</defs>
</svg>
