<svg width="233" height="72" viewBox="0 0 233 72" fill="none" xmlns="http://www.w3.org/2000/svg">
<g filter="url(#filter0_bdi_1_213)">
<rect x="36" y="16" width="179" height="32" rx="16" fill="#4E4B4B" fill-opacity="0.08" shape-rendering="crispEdges"/>
<rect x="36.5" y="16.5" width="178" height="31" rx="15.5" stroke="white" stroke-opacity="0.12" shape-rendering="crispEdges"/>
<path d="M79.484 36L79.484 27.54L84.86 27.54L84.86 28.548L80.732 28.548L80.732 31.248L84.608 31.248L84.608 32.256L80.732 32.256L80.732 36L79.484 36ZM87.7842 36.108C87.3762 36.108 87.0082 36.028 86.6802 35.868C86.3602 35.708 86.1082 35.492 85.9242 35.22C85.7402 34.948 85.6482 34.64 85.6482 34.296C85.6482 33.864 85.7562 33.524 85.9722 33.276C86.1962 33.02 86.5602 32.84 87.0642 32.736C87.5762 32.624 88.2642 32.568 89.1282 32.568L89.6922 32.568L89.6922 33.312L89.1402 33.312C88.7082 33.312 88.3442 33.328 88.0482 33.36C87.7522 33.392 87.5162 33.444 87.3402 33.516C87.1642 33.58 87.0362 33.672 86.9562 33.792C86.8842 33.912 86.8482 34.056 86.8482 34.224C86.8482 34.528 86.9522 34.776 87.1602 34.968C87.3682 35.152 87.6562 35.244 88.0242 35.244C88.3202 35.244 88.5802 35.176 88.8042 35.04C89.0282 34.896 89.2042 34.704 89.3322 34.464C89.4682 34.224 89.5362 33.948 89.5362 33.636L89.5362 32.256C89.5362 31.8 89.4402 31.472 89.2482 31.272C89.0562 31.072 88.7402 30.972 88.3002 30.972C87.9642 30.972 87.6282 31.024 87.2922 31.128C86.9562 31.224 86.6122 31.38 86.2602 31.596L85.8882 30.744C86.0962 30.6 86.3362 30.476 86.6082 30.372C86.8802 30.268 87.1642 30.188 87.4602 30.132C87.7642 30.068 88.0562 30.036 88.3362 30.036C88.8722 30.036 89.3122 30.12 89.6562 30.288C90.0082 30.456 90.2682 30.712 90.4362 31.056C90.6042 31.4 90.6882 31.844 90.6882 32.388L90.6882 36L89.5482 36L89.5482 34.692L89.6562 34.692C89.5922 34.988 89.4722 35.244 89.2962 35.46C89.1282 35.668 88.9162 35.828 88.6602 35.94C88.4042 36.052 88.1122 36.108 87.7842 36.108ZM94.5595 36.108C94.2475 36.108 93.9435 36.08 93.6475 36.024C93.3515 35.968 93.0795 35.888 92.8315 35.784C92.5835 35.68 92.3635 35.552 92.1715 35.4L92.5195 34.584C92.7195 34.72 92.9315 34.84 93.1555 34.944C93.3795 35.04 93.6115 35.112 93.8515 35.16C94.0995 35.208 94.3395 35.232 94.5715 35.232C94.9955 35.232 95.3155 35.156 95.5315 35.004C95.7475 34.852 95.8555 34.648 95.8555 34.392C95.8555 34.184 95.7835 34.024 95.6395 33.912C95.4955 33.792 95.2795 33.7 94.9915 33.636L93.8515 33.408C93.3555 33.304 92.9795 33.12 92.7235 32.856C92.4675 32.592 92.3395 32.256 92.3395 31.848C92.3395 31.48 92.4395 31.16 92.6395 30.888C92.8395 30.616 93.1195 30.408 93.4795 30.264C93.8395 30.112 94.2555 30.036 94.7275 30.036C94.9995 30.036 95.2635 30.064 95.5195 30.12C95.7755 30.176 96.0155 30.256 96.2395 30.36C96.4715 30.464 96.6675 30.596 96.8275 30.756L96.4795 31.572C96.3275 31.436 96.1515 31.32 95.9515 31.224C95.7595 31.128 95.5595 31.056 95.3515 31.008C95.1435 30.952 94.9355 30.924 94.7275 30.924C94.3035 30.924 93.9835 31.004 93.7675 31.164C93.5595 31.316 93.4555 31.524 93.4555 31.788C93.4555 31.988 93.5195 32.152 93.6475 32.28C93.7755 32.408 93.9755 32.5 94.2475 32.556L95.3875 32.784C95.9075 32.888 96.2995 33.064 96.5635 33.312C96.8355 33.56 96.9715 33.896 96.9715 34.32C96.9715 34.688 96.8715 35.008 96.6715 35.28C96.4715 35.552 96.1875 35.76 95.8195 35.904C95.4595 36.04 95.0395 36.108 94.5595 36.108ZM100.907 36.108C100.179 36.108 99.6314 35.92 99.2634 35.544C98.9034 35.168 98.7234 34.624 98.7234 33.912L98.7234 31.08L97.5834 31.08L97.5834 30.144L98.7234 30.144L98.7234 28.38L99.9354 28.38L99.9354 30.144L101.747 30.144L101.747 31.08L99.9354 31.08L99.9354 33.816C99.9354 34.24 100.023 34.56 100.199 34.776C100.383 34.992 100.679 35.1 101.087 35.1C101.207 35.1 101.327 35.084 101.447 35.052C101.575 35.02 101.699 34.988 101.819 34.956L102.011 35.868C101.891 35.94 101.723 35.996 101.507 36.036C101.299 36.084 101.099 36.108 100.907 36.108ZM105.634 36.108C104.994 36.108 104.442 35.988 103.978 35.748C103.522 35.5 103.166 35.152 102.91 34.704C102.662 34.248 102.538 33.708 102.538 33.084C102.538 32.476 102.662 31.944 102.91 31.488C103.158 31.032 103.498 30.676 103.93 30.42C104.362 30.164 104.854 30.036 105.406 30.036C105.95 30.036 106.414 30.156 106.798 30.396C107.19 30.628 107.49 30.96 107.698 31.392C107.906 31.824 108.01 32.34 108.01 32.94L108.01 33.348L103.498 33.348L103.498 32.604L107.194 32.604L106.99 32.772C106.99 32.172 106.858 31.708 106.594 31.38C106.33 31.052 105.95 30.888 105.454 30.888C105.078 30.888 104.758 30.976 104.494 31.152C104.238 31.328 104.042 31.572 103.906 31.884C103.77 32.196 103.702 32.56 103.702 32.976L103.702 33.048C103.702 33.512 103.774 33.904 103.918 34.224C104.07 34.536 104.29 34.772 104.578 34.932C104.866 35.092 105.222 35.172 105.646 35.172C105.982 35.172 106.31 35.12 106.63 35.016C106.958 34.904 107.266 34.732 107.554 34.5L107.914 35.34C107.65 35.58 107.31 35.768 106.894 35.904C106.478 36.04 106.058 36.108 105.634 36.108ZM111.533 36.108C111.221 36.108 110.917 36.08 110.621 36.024C110.325 35.968 110.053 35.888 109.805 35.784C109.557 35.68 109.337 35.552 109.145 35.4L109.493 34.584C109.693 34.72 109.905 34.84 110.129 34.944C110.353 35.04 110.585 35.112 110.825 35.16C111.073 35.208 111.313 35.232 111.545 35.232C111.969 35.232 112.289 35.156 112.505 35.004C112.721 34.852 112.829 34.648 112.829 34.392C112.829 34.184 112.757 34.024 112.613 33.912C112.469 33.792 112.253 33.7 111.965 33.636L110.825 33.408C110.329 33.304 109.953 33.12 109.697 32.856C109.441 32.592 109.313 32.256 109.313 31.848C109.313 31.48 109.413 31.16 109.613 30.888C109.813 30.616 110.093 30.408 110.453 30.264C110.813 30.112 111.229 30.036 111.701 30.036C111.973 30.036 112.237 30.064 112.493 30.12C112.749 30.176 112.989 30.256 113.213 30.36C113.445 30.464 113.641 30.596 113.801 30.756L113.453 31.572C113.301 31.436 113.125 31.32 112.925 31.224C112.733 31.128 112.533 31.056 112.325 31.008C112.117 30.952 111.909 30.924 111.701 30.924C111.277 30.924 110.957 31.004 110.741 31.164C110.533 31.316 110.429 31.524 110.429 31.788C110.429 31.988 110.493 32.152 110.621 32.28C110.749 32.408 110.949 32.5 111.221 32.556L112.361 32.784C112.881 32.888 113.273 33.064 113.537 33.312C113.809 33.56 113.945 33.896 113.945 34.32C113.945 34.688 113.845 35.008 113.645 35.28C113.445 35.552 113.161 35.76 112.793 35.904C112.433 36.04 112.013 36.108 111.533 36.108ZM117.881 36.108C117.153 36.108 116.605 35.92 116.237 35.544C115.877 35.168 115.697 34.624 115.697 33.912L115.697 31.08L114.557 31.08L114.557 30.144L115.697 30.144L115.697 28.38L116.909 28.38L116.909 30.144L118.721 30.144L118.721 31.08L116.909 31.08L116.909 33.816C116.909 34.24 116.997 34.56 117.173 34.776C117.357 34.992 117.653 35.1 118.061 35.1C118.181 35.1 118.301 35.084 118.421 35.052C118.549 35.02 118.673 34.988 118.793 34.956L118.985 35.868C118.865 35.94 118.697 35.996 118.481 36.036C118.273 36.084 118.073 36.108 117.881 36.108ZM126.172 36.108C125.732 36.108 125.312 36.072 124.912 36C124.52 35.92 124.156 35.808 123.82 35.664C123.492 35.512 123.2 35.332 122.944 35.124L123.34 34.14C123.612 34.34 123.892 34.508 124.18 34.644C124.468 34.78 124.776 34.884 125.104 34.956C125.432 35.02 125.788 35.052 126.172 35.052C126.852 35.052 127.352 34.932 127.672 34.692C128 34.444 128.164 34.124 128.164 33.732C128.164 33.516 128.112 33.332 128.008 33.18C127.912 33.028 127.752 32.9 127.528 32.796C127.304 32.684 127.012 32.592 126.652 32.52L125.368 32.256C124.608 32.096 124.04 31.832 123.664 31.464C123.296 31.096 123.112 30.6 123.112 29.976C123.112 29.464 123.248 29.016 123.52 28.632C123.792 28.248 124.164 27.952 124.636 27.744C125.116 27.536 125.668 27.432 126.292 27.432C126.676 27.432 127.04 27.472 127.384 27.552C127.736 27.624 128.06 27.736 128.356 27.888C128.66 28.04 128.924 28.224 129.148 28.44L128.74 29.388C128.396 29.084 128.024 28.86 127.624 28.716C127.224 28.564 126.776 28.488 126.28 28.488C125.888 28.488 125.544 28.548 125.248 28.668C124.96 28.788 124.736 28.956 124.576 29.172C124.424 29.388 124.348 29.644 124.348 29.94C124.348 30.276 124.456 30.544 124.672 30.744C124.888 30.944 125.248 31.096 125.752 31.2L127.024 31.464C127.824 31.632 128.42 31.892 128.812 32.244C129.204 32.596 129.4 33.064 129.4 33.648C129.4 34.136 129.268 34.568 129.004 34.944C128.74 35.312 128.368 35.6 127.888 35.808C127.408 36.008 126.836 36.108 126.172 36.108ZM130.835 36L130.835 27.54L132.047 27.54L132.047 31.392L131.879 31.392C132.055 30.944 132.331 30.608 132.707 30.384C133.083 30.152 133.515 30.036 134.003 30.036C134.467 30.036 134.851 30.124 135.155 30.3C135.467 30.468 135.699 30.728 135.851 31.08C136.003 31.424 136.079 31.86 136.079 32.388L136.079 36L134.867 36L134.867 32.46C134.867 32.124 134.823 31.852 134.735 31.644C134.647 31.428 134.515 31.268 134.339 31.164C134.163 31.06 133.935 31.008 133.655 31.008C133.335 31.008 133.051 31.076 132.803 31.212C132.563 31.348 132.375 31.544 132.239 31.8C132.111 32.056 132.047 32.352 132.047 32.688L132.047 36L130.835 36ZM137.791 28.788L137.791 27.528L139.207 27.528L139.207 28.788L137.791 28.788ZM137.899 36L137.899 30.144L139.111 30.144L139.111 36L137.899 36ZM140.967 38.16L140.967 30.144L142.155 30.144L142.155 31.464L142.023 31.464C142.151 31.032 142.403 30.688 142.779 30.432C143.155 30.168 143.599 30.036 144.111 30.036C144.631 30.036 145.083 30.16 145.467 30.408C145.859 30.656 146.159 31.004 146.367 31.452C146.583 31.9 146.691 32.44 146.691 33.072C146.691 33.688 146.583 34.228 146.367 34.692C146.159 35.148 145.863 35.5 145.479 35.748C145.095 35.988 144.639 36.108 144.111 36.108C143.607 36.108 143.167 35.98 142.791 35.724C142.415 35.468 142.163 35.128 142.035 34.704L142.179 34.704L142.179 38.16L140.967 38.16ZM143.811 35.172C144.315 35.172 144.715 34.992 145.011 34.632C145.315 34.272 145.467 33.752 145.467 33.072C145.467 32.384 145.315 31.864 145.011 31.512C144.715 31.16 144.315 30.984 143.811 30.984C143.315 30.984 142.915 31.16 142.611 31.512C142.307 31.864 142.155 32.384 142.155 33.072C142.155 33.752 142.307 34.272 142.611 34.632C142.915 34.992 143.315 35.172 143.811 35.172ZM148.207 38.16L148.207 30.144L149.395 30.144L149.395 31.464L149.263 31.464C149.391 31.032 149.643 30.688 150.019 30.432C150.395 30.168 150.839 30.036 151.351 30.036C151.871 30.036 152.323 30.16 152.707 30.408C153.099 30.656 153.399 31.004 153.607 31.452C153.823 31.9 153.931 32.44 153.931 33.072C153.931 33.688 153.823 34.228 153.607 34.692C153.399 35.148 153.103 35.5 152.719 35.748C152.335 35.988 151.879 36.108 151.351 36.108C150.847 36.108 150.407 35.98 150.031 35.724C149.655 35.468 149.403 35.128 149.275 34.704L149.419 34.704L149.419 38.16L148.207 38.16ZM151.051 35.172C151.555 35.172 151.955 34.992 152.251 34.632C152.555 34.272 152.707 33.752 152.707 33.072C152.707 32.384 152.555 31.864 152.251 31.512C151.955 31.16 151.555 30.984 151.051 30.984C150.555 30.984 150.155 31.16 149.851 31.512C149.547 31.864 149.395 32.384 149.395 33.072C149.395 33.752 149.547 34.272 149.851 34.632C150.155 34.992 150.555 35.172 151.051 35.172ZM155.339 28.788L155.339 27.528L156.755 27.528L156.755 28.788L155.339 28.788ZM155.447 36L155.447 30.144L156.659 30.144L156.659 36L155.447 36ZM158.514 36L158.514 30.144L159.69 30.144L159.69 31.392L159.558 31.392C159.734 30.944 160.01 30.608 160.386 30.384C160.762 30.152 161.194 30.036 161.682 30.036C162.146 30.036 162.53 30.124 162.834 30.3C163.146 30.468 163.378 30.728 163.53 31.08C163.682 31.424 163.758 31.86 163.758 32.388L163.758 36L162.546 36L162.546 32.46C162.546 32.124 162.502 31.852 162.414 31.644C162.326 31.428 162.194 31.268 162.018 31.164C161.842 31.06 161.614 31.008 161.334 31.008C161.014 31.008 160.73 31.076 160.482 31.212C160.242 31.348 160.054 31.544 159.918 31.8C159.79 32.056 159.726 32.352 159.726 32.688L159.726 36L158.514 36ZM168.231 38.268C167.703 38.268 167.211 38.204 166.755 38.076C166.299 37.948 165.895 37.756 165.543 37.5L165.915 36.636C166.147 36.788 166.383 36.916 166.623 37.02C166.871 37.132 167.119 37.212 167.367 37.26C167.623 37.308 167.883 37.332 168.147 37.332C168.707 37.332 169.127 37.188 169.407 36.9C169.687 36.62 169.827 36.204 169.827 35.652L169.827 34.428L169.935 34.428C169.815 34.868 169.563 35.216 169.179 35.472C168.795 35.728 168.351 35.856 167.847 35.856C167.319 35.856 166.859 35.736 166.467 35.496C166.075 35.248 165.771 34.908 165.555 34.476C165.339 34.036 165.231 33.524 165.231 32.94C165.231 32.356 165.339 31.848 165.555 31.416C165.771 30.984 166.075 30.648 166.467 30.408C166.859 30.16 167.319 30.036 167.847 30.036C168.359 30.036 168.803 30.164 169.179 30.42C169.563 30.676 169.811 31.024 169.923 31.464L169.827 31.464L169.827 30.144L171.003 30.144L171.003 35.508C171.003 36.116 170.899 36.624 170.691 37.032C170.483 37.448 170.171 37.756 169.755 37.956C169.347 38.164 168.839 38.268 168.231 38.268ZM168.135 34.908C168.655 34.908 169.063 34.732 169.359 34.38C169.663 34.028 169.815 33.548 169.815 32.94C169.815 32.34 169.663 31.864 169.359 31.512C169.063 31.16 168.655 30.984 168.135 30.984C167.623 30.984 167.215 31.16 166.911 31.512C166.607 31.864 166.455 32.34 166.455 32.94C166.455 33.548 166.607 34.028 166.911 34.38C167.215 34.732 167.623 34.908 168.135 34.908Z" fill="white"/>
</g>
<path d="M24.3586 32.0795C24.3586 36.7396 20.5808 40.5173 15.9208 40.5173C11.2607 40.5173 7.48296 36.7396 7.48296 32.0795C7.48296 27.4195 11.2607 23.6417 15.9208 23.6417C20.5808 23.6417 24.3586 27.4195 24.3586 32.0795Z" fill="#F9CB22"/>
<path fill-rule="evenodd" clip-rule="evenodd" d="M15.9995 42.938C22.0405 42.938 26.9377 38.0407 26.9377 31.9997C26.9377 25.9587 22.0405 21.0614 15.9995 21.0614C9.95842 21.0614 5.06119 25.9587 5.06119 31.9997C5.06119 38.0407 9.95842 42.938 15.9995 42.938ZM15.9995 43.2236C22.1982 43.2236 27.2233 38.1985 27.2233 31.9997C27.2233 25.8009 22.1982 20.7758 15.9995 20.7758C9.80068 20.7758 4.77557 25.8009 4.77557 31.9997C4.77557 38.1985 9.80068 43.2236 15.9995 43.2236Z" fill="#F9CB22"/>
<path opacity="0.15" fill-rule="evenodd" clip-rule="evenodd" d="M16 45.2623C23.3246 45.2623 29.2623 39.3246 29.2623 32C29.2623 24.6754 23.3246 18.7377 16 18.7377C8.67544 18.7377 2.7377 24.6754 2.7377 32C2.7377 39.3246 8.67544 45.2623 16 45.2623ZM16 48C24.8366 48 32 40.8366 32 32C32 23.1634 24.8366 16 16 16C7.16344 16 -3.32098e-09 23.1634 -7.41761e-09 32C-1.15142e-08 40.8366 7.16344 48 16 48Z" fill="#F9CB22"/>
<defs>
<filter id="filter0_bdi_1_213" x="11" y="-9" width="229" height="82" filterUnits="userSpaceOnUse" color-interpolation-filters="sRGB">
<feFlood flood-opacity="0" result="BackgroundImageFix"/>
<feGaussianBlur in="BackgroundImageFix" stdDeviation="12.5"/>
<feComposite in2="SourceAlpha" operator="in" result="effect1_backgroundBlur_1_213"/>
<feColorMatrix in="SourceAlpha" type="matrix" values="0 0 0 0 0 0 0 0 0 0 0 0 0 0 0 0 0 0 127 0" result="hardAlpha"/>
<feOffset dy="4"/>
<feGaussianBlur stdDeviation="10"/>
<feComposite in2="hardAlpha" operator="out"/>
<feColorMatrix type="matrix" values="0 0 0 0 1 0 0 0 0 1 0 0 0 0 1 0 0 0 0.21 0"/>
<feBlend mode="normal" in2="effect1_backgroundBlur_1_213" result="effect2_dropShadow_1_213"/>
<feBlend mode="normal" in="SourceGraphic" in2="effect2_dropShadow_1_213" result="shape"/>
<feColorMatrix in="SourceAlpha" type="matrix" values="0 0 0 0 0 0 0 0 0 0 0 0 0 0 0 0 0 0 127 0" result="hardAlpha"/>
<feOffset dy="-5"/>
<feGaussianBlur stdDeviation="5.5"/>
<feComposite in2="hardAlpha" operator="arithmetic" k2="-1" k3="1"/>
<feColorMatrix type="matrix" values="0 0 0 0 1 0 0 0 0 1 0 0 0 0 1 0 0 0 0.19 0"/>
<feBlend mode="normal" in2="shape" result="effect3_innerShadow_1_213"/>
</filter>
</defs>
</svg>
